{
  "accessors": [
    {
      "bufferView": 2,
      "componentType": 5126,
      "count": 5427,
      "max": [
        2.123760938644409,
        9.141199111938477,
        6.494650363922119
      ],
      "min": [
        -2.123760938644409,
        -10.601289749145508,
        0.010946214199066162
      ],
      "type": "VEC3"
    },
    {
      "bufferView": 2,
      "byteOffset": 65124,
      "componentType": 5126,
      "count": 5427,
      "max": [
        0.9999676942825317,
        0.9995761513710022,
        0.9987843036651611
      ],
      "min": [
        -0.9999676942825317,
        -0.9999011158943176,
        -0.9999998807907104
      ],
      "type": "VEC3"
    },
    {
      "bufferView": 1,
      "componentType": 5126,
      "count": 5427,
      "max": [
        0.9974116086959839,
        0.996223509311676
      ],
      "min": [
        0.00547841377556324,
        0.005926876794546843
      ],
      "type": "VEC2"
    },
    {
      "bufferView": 0,
      "componentType": 5125,
      "count": 29796,
      "type": "SCALAR"
    }
  ],
  "asset": {
    "extras": {
      "author": "Locur (https://sketchfab.com/Locur)",
      "license": "CC-BY-4.0 (http://creativecommons.org/licenses/by/4.0/)",
      "source": "https://sketchfab.com/3d-models/pascal-tangled-disney-e094b3a705f94e91b7c869fa200a51a0",
      "title": "Pascal - Tangled (Disney)"
    },
    "generator": "Sketchfab-12.67.0",
    "version": "2.0"
  },
  "bufferViews": [
    {
      "buffer": 0,
      "byteLength": 119184,
      "name": "floatBufferViews",
      "target": 34963
    },
    {
      "buffer": 0,
      "byteLength": 43416,
      "byteOffset": 119184,
      "byteStride": 8,
      "name": "floatBufferViews",
      "target": 34962
    },
    {
      "buffer": 0,
      "byteLength": 130248,
      "byteOffset": 162600,
      "byteStride": 12,
      "name": "floatBufferViews",
      "target": 34962
    }
  ],
  "buffers": [
    {
      "byteLength": 292848,
      "uri": "scene.bin"
    }
  ],
  "images": [
    {
      "uri": "textures/Material.001_baseColor.jpeg"
    }
  ],
  "materials": [
    {
      "doubleSided": true,
      "name": "Material.001",
      "pbrMetallicRoughness": {
        "baseColorTexture": {
          "index": 0
        },
        "metallicFactor": 0.17161118174020046,
        "roughnessFactor": 0.8769437034881896
      }
    }
  ],
  "meshes": [
    {
      "name": "Model_Material.001_0",
      "primitives": [
        {
          "attributes": {
            "NORMAL": 1,
            "POSITION": 0,
            "TEXCOORD_0": 2
          },
          "indices": 3,
          "material": 0,
          "mode": 4
        }
      ]
    }
  ],
  "nodes": [
    {
      "children": [
        1
      ],
      "matrix": [
        1.0,
        0.0,
        0.0,
        0.0,
        0.0,
        2.220446049250313e-16,
        -1.0,
        0.0,
        0.0,
        1.0,
        2.220446049250313e-16,
        0.0,
        0.0,
        0.0,
        0.0,
        1.0
      ],
      "name": "Sketchfab_model"
    },
    {
      "children": [
        2
      ],
      "matrix": [
        1.0,
        0.0,
        0.0,
        0.0,
        0.0,
        0.0,
        1.0,
        0.0,
        0.0,
        -1.0,
        0.0,
        0.0,
        0.0,
        0.0,
        0.0,
        1.0
      ],
      "name": "404f3629b32f4d1dad5c43d83b4558cb.fbx"
    },
    {
      "children": [
        3
      ],
      "name": "RootNode"
    },
    {
      "children": [
        4
      ],
      "matrix": [
        23.613059997558594,
        0.0,
        0.0,
        0.0,
        0.0,
        -3.847055777322323e-06,
        -23.61305999755828,
        0.0,
        0.0,
        23.61305999755828,
        -3.847055777322323e-06,
        0.0,
        0.0,
        -2.9802322387695313e-06,
        0.0,
        1.0
      ],
      "name": "Model"
    },
    {
      "mesh": 0,
      "name": "Model_Material.001_0"
    }
  ],
  "samplers": [
    {
      "magFilter": 9729,
      "minFilter": 9987,
      "wrapS": 10497,
      "wrapT": 10497
    }
  ],
  "scene": 0,
  "scenes": [
    {
      "name": "Sketchfab_Scene",
      "nodes": [
        0
      ]
    }
  ],
  "textures": [
    {
      "sampler": 0,
      "source": 0
    }
  ]
}
